PathFileType	4	(X/Y/Z)	/Users/mathieubourgeois/Desktop/Analyse/Traitement/Sujet_01/Data/Transformed_Sujet_01_velo_60.trc
DataRate	CameraRate	NumFrames	NumMarkers	Units	OrigDataRate	OrigDataStartFrame	OrigNumFrames
120.000000	120.000000	5	36	mm	120.000000	482	1931
Frame#	Time	C7			RFHD			LFHD			RBHD			LBHD			RSHO			LSHO			CLAV			STRN			T10			RBWT			LBWT			RFWT			LFWT			RRAD			RWRA			RWRB			RCAR			RHUM			LHUM			LRAD			LWRA			LWRB			LCAR			RKNI			RKNE			LKNI			LKNE			RANE			RANI			RTOE			RHEE			LTOE			LANI			LANE			LHEE			
		X1	Y1	Z1	X2	Y2	Z2	X3	Y3	Z3	X4	Y4	Z4	X5	Y5	Z5	X6	Y6	Z6	X7	Y7	Z7	X8	Y8	Z8	X9	Y9	Z9	X10	Y10	Z10	X11	Y11	Z11	X12	Y12	Z12	X13	Y13	Z13	X14	Y14	Z14	X15	Y15	Z15	X16	Y16	Z16	X17	Y17	Z17	X18	Y18	Z18	X19	Y19	Z19	X20	Y20	Z20	X21	Y21	Z21	X22	Y22	Z22	X23	Y23	Z23	X24	Y24	Z24	X25	Y25	Z25	X26	Y26	Z26	X27	Y27	Z27	X28	Y28	Z28	X29	Y29	Z29	X30	Y30	Z30	X31	Y31	Z31	X32	Y32	Z32	X33	Y33	Z33	X34	Y34	Z34	X35	Y35	Z35	X36	Y36	Z36	

483	4.016666666666667	-33.59057235717777	1463.928100585938	265.8011169433593	162.1961975097656	1489.58349609375	318.3226318359374	152.4727935791015	1492.957397460938	193.5388946533203	23.63264465332027	1548.71826171875	337.2980041503905	7.52433586120603	1554.3486328125	206.572540283203	-17.36684036254887	1391.794677734375	369.7335815429687	-22.01388549804689	1383.686645507812	146.1521759033202	2.356084823608366	1330.236206054688	261.8352355957031	-51.40935897827152	1225.706665039062	265.7554626464843	-240.0891876220703	1385.836181640625	273.8978576660155	-419.4328918457032	1104.857055664062	334.0632324218749	-421.8747253417969	1099.767944335938	214.2842407226561	-245.2513732910157	1075.379150390625	384.2133483886718	-241.7145690917969	1078.102172851562	159.4950866699218	91.78672790527338	1137.979248046875	459.9267272949218	299.0610046386718	1032.475341796875	390.6168823242188	326.3554077148437	1048.954833984375	449.03076171875	403.1070556640624	1031.580688476562	376.689208984375	140.9420318603515	1177.687377929688	483.0606384277343	152.1451263427734	1182.172485351562	53.05335617065425	98.56018829345702	1146.169311523438	67.83864593505854	319.7737426757812	1042.963500976562	135.1210784912109	341.5827026367188	1057.401123046875	73.32711791992185	406.906982421875	1037.31591796875	140.5951690673828	-0.1341158300638622	782.3341674804688	345.7193603515624	-10.12193679809576	814.10693359375	462.4082031249999	-40.20549774169924	735.1220092773438	197.5091400146484	-68.61086273193361	728.4124145507812	71.06501007080072	-68.71124267578131	474.9172058105469	430.1165161132812	-38.88234710693364	482.6777954101562	353.2448730468749	116.7264251708984	428.8048095703125	435.7498474121094	-122.5251083374024	425.9875183105469	379.4979858398438	-164.8131561279297	303.3471069335938	132.2025909423828	-261.926025390625	461.4095764160156	179.0780639648437	-280.3394470214844	462.2590942382812	102.4656677246093	-357.1702880859375	465.8286743164062	150.4889831542968	
484	4.025	-33.32824325561527	1464.322021484375	265.3021850585936	162.3312225341797	1489.764404296875	317.8800048828124	152.712158203125	1493.097534179688	193.0771942138671	23.92285919189449	1549.254150390625	336.7029724121093	7.917954921722387	1554.851440429688	205.9802856445312	-16.88311576843266	1392.2001953125	369.2577514648437	-21.74320793151857	1384.103759765625	145.5618438720702	2.746581077575652	1330.777221679688	261.2697143554687	-50.79620361328129	1226.14404296875	265.3015441894531	-239.7919006347657	1385.984741210938	273.6477661132811	-418.6465454101563	1104.877319335938	334.506622314453	-421.5584716796875	1099.863647460938	214.6888122558593	-244.1960906982422	1074.942993164062	384.2594909667968	-241.6581268310547	1078.281982421875	159.5038604736327	92.0524063110351	1138.1796875	459.7998962402343	299.0534362792968	1032.131469726562	391.2097473144531	326.4980773925781	1048.89599609375	449.1157836914062	403.1938781738281	1031.54248046875	376.7761840820312	141.1819305419921	1177.8203125	483.0198364257812	152.3346099853516	1182.15234375	52.85752105712886	98.73426818847655	1146.261596679688	67.82800292968744	319.8906860351562	1042.998291015625	135.1712036132812	341.7112121582031	1057.382080078125	73.36617279052732	407.0411071777344	1037.253540039062	140.6592102050781	-2.84214520454411	773.490234375	345.7527465820312	-13.08978462219244	804.8612060546875	462.5933227539062	-35.65336608886721	741.0850830078125	197.065933227539	-64.12349700927736	734.5726928710938	70.34349822998041	-66.80811309814459	465.8321533203125	430.2769470214843	-37.01019287109379	473.0058898925781	353.3162536621093	118.7308959960937	419.0400390625	435.8234252929688	-120.4912796020508	416.3726806640625	379.329833984375	-166.8703765869141	311.5683288574219	132.2018737792968	-261.7155456542969	471.1420593261719	179.4383392333984	-280.3580017089844	472.1498413085938	102.8053512573242	-357.639404296875	475.5137329101562	150.8068542480468	
485	4.033333333333333	-33.05327606201175	1464.720458984375	264.7589416503905	162.4640045166015	1489.991455078125	317.4265747070311	152.9971160888672	1493.241943359375	192.5736083984374	24.18668174743648	1549.84716796875	336.0896606445311	8.30098438262937	1555.38818359375	205.3446655273437	-16.36872291564946	1392.613525390625	368.7335205078124	-21.54538726806642	1384.514282226562	144.967559814453	3.229578018188445	1331.392456054688	260.6493225097656	-50.14995574951175	1226.597778320312	264.7715759277343	-239.4761962890625	1386.191772460938	273.3698730468749	-417.8380126953126	1104.92724609375	334.9888610839843	-421.2516784667969	1100.025634765625	215.2039642333983	-243.1860351562501	1074.382934570312	384.0125427246093	-241.6327362060547	1078.470825195312	159.5109252929687	92.35192108154291	1138.420043945312	459.6339721679687	299.1814575195312	1032.031616210938	391.2943725585938	326.6294555664062	1048.84912109375	449.1906433105469	403.2934570312499	1031.509765625	376.8283386230469	141.4916534423828	1177.996826171875	482.9141540527343	152.0219879150391	1182.77880859375	52.84703445434565	98.96278381347655	1146.33447265625	67.79868316650385	320.0252990722656	1043.06005859375	135.2148284912109	341.8464965820312	1057.368041992188	73.40260314941403	407.1724548339844	1037.182006835938	140.7070617675781	-7.324432849884076	764.3204956054688	345.8283386230468	-17.23110008239752	796.2576904296875	462.7500610351562	-31.09034538269045	747.3189086914062	196.7109374999999	-59.59649276733399	740.9918823242188	69.67687988281244	-65.43532562255865	456.0378723144531	430.2171325683594	-35.57473754882817	463.3695373535156	353.4283447265625	120.1978759765624	409.110595703125	435.8834228515625	-118.9092483520508	406.8883056640625	379.144775390625	-167.929931640625	320.6085815429688	132.2767181396484	-261.0798950195312	480.935791015625	179.8394165039062	-279.9742431640625	482.0638122558594	103.0890350341796	-357.3374328613281	486.1691589355469	151.2103881835937	
486	4.041666666666667	-32.75455474853519	1465.150634765625	264.1803588867186	162.613037109375	1490.24755859375	316.9184570312499	153.2783508300781	1493.463256835938	192.0511016845703	24.49359130859371	1550.414306640625	335.3897705078124	8.722398757934545	1555.907836914062	204.6235961914062	-15.84264755249028	1393.0537109375	368.1263732910155	-21.27322578430178	1384.965087890625	144.335479736328	3.692770242691008	1331.94384765625	260.0084838867187	-49.51244735717777	1227.037475585938	264.2611694335937	-239.1464996337891	1386.405517578125	273.1049499511718	-417.0729980468751	1105.042846679688	335.4594421386718	-420.9443359375	1100.230590820312	215.6509857177733	-242.2669372558594	1073.925537109375	383.9086303710936	-241.6305541992188	1078.713012695312	159.4629669189452	92.65341949462885	1138.665771484375	459.4169616699218	299.3237915039062	1031.930419921875	391.34375	326.8034362792968	1048.843383789062	449.212646484375	403.3846130371093	1031.48046875	376.8858947753906	141.8470458984374	1178.224853515625	482.7427062988281	152.4821014404297	1182.178955078125	52.65146636962886	99.30004119873045	1146.40771484375	68.49227905273432	320.1540832519531	1043.10205078125	135.2488555908203	342.0128784179688	1057.328979492188	73.40630340576169	407.3073425292969	1037.11376953125	140.7619781494141	-10.83595180511479	755.7339477539062	345.7698974609374	-20.41644096374517	786.867919921875	461.9265747070312	-26.45372581481936	753.8140869140625	196.4350128173828	-55.01213836669923	747.6990966796875	69.14554595947261	-64.55644226074224	446.3775024414062	430.2365417480469	-34.49167633056645	453.8123779296875	353.4536743164062	121.1972351074218	399.1151428222656	435.9103698730469	-117.896240234375	397.5412292480469	379.0394287109375	-168.5409545898438	329.7271423339844	132.3939514160156	-260.1076354980469	490.8264465332031	180.2387542724609	-279.3215637207031	492.0796813964844	103.5251388549804	-356.6737365722656	496.7237243652344	151.6186523437499	
487	4.05	-32.421012878418	1465.563110351562	263.565704345703	162.7776641845703	1490.51611328125	316.2843017578124	153.5353851318359	1493.677612304688	191.4315490722656	24.80039978027339	1550.987182617188	334.6651306152343	9.074864387512182	1556.39697265625	203.8787536621093	-15.2797479629517	1393.494018554688	367.494903564453	-21.00851249694826	1385.375366210938	143.7186279296874	4.214855194091765	1332.527221679688	259.3731079101562	-48.85218429565433	1227.491455078125	263.7150268554687	-238.7637939453125	1386.622924804688	272.7709960937499	-416.3074340820313	1105.218017578125	335.9787292480468	-420.6720581054688	1100.502807617188	216.147003173828	-241.4182891845704	1073.519653320312	383.7637939453124	-241.6078796386719	1078.986450195312	159.382095336914	92.98545074462885	1138.9619140625	459.2177734374999	299.4831237792968	1031.862670898438	391.3610534667969	326.9742126464843	1048.833740234375	449.2190856933594	403.4701843261718	1031.427612304688	376.9209594726562	142.1599731445312	1178.47412109375	482.5484619140624	152.6661071777344	1182.12255859375	52.43870544433589	99.49273681640624	1146.4560546875	68.46336364746088	320.3042907714844	1043.153564453125	135.2618865966797	342.1618957519531	1057.290161132812	73.38922119140622	406.9744262695312	1036.813720703125	140.2242584228516	-14.54827117919926	746.8637084960938	345.4620666503906	-25.11461067199713	778.0911254882812	462.1572265624999	-21.87724304199221	760.5978393554688	196.3031463623046	-50.45547103881837	754.619384765625	68.6958847045898	-64.14696502685553	436.1839599609375	430.0441284179688	-34.01573944091801	444.3542785644531	353.5130004882812	121.6591644287109	389.0585632324219	435.9175415039062	-117.3784713745118	388.4161071777344	378.9161682128906	-168.5274353027344	339.0329895019531	132.5309906005859	-258.80224609375	500.7168884277344	180.6682739257812	-278.178466796875	502.0281066894531	103.8037567138671	-355.729248046875	507.1666259765625	152.0309753417968	
